<svg width="14" height="13" viewBox="0 0 14 13" fill="none" xmlns="http://www.w3.org/2000/svg">
<path d="M4.39991 6.18421V3.02632C4.39991 2.3563 4.67385 1.71372 5.16146 1.23994C5.64907 0.766165 6.31041 0.5 7 0.5C7.68959 0.5 8.35093 0.766165 8.83854 1.23994C9.32615 1.71372 9.60009 2.3563 9.60009 3.02632V6.18421M0.530978 10.9627C0.488735 11.1474 0.489707 11.3389 0.533821 11.5231C0.577936 11.7073 0.664067 11.8796 0.785857 12.0271C0.907647 12.1747 1.06199 12.2938 1.23748 12.3756C1.41298 12.4575 1.60515 12.5 1.79982 12.5H12.2002C12.3948 12.5 12.587 12.4575 12.7625 12.3756C12.938 12.2938 13.0924 12.1747 13.2141 12.0271C13.3359 11.8796 13.4221 11.7073 13.4662 11.5231C13.5103 11.3389 13.5113 11.1474 13.469 10.9627L12.169 5.27853C12.1048 4.99803 11.9441 4.74717 11.7134 4.56736C11.4828 4.38754 11.1959 4.28952 10.9001 4.28947H3.09987C2.80413 4.28952 2.51724 4.38754 2.28656 4.56736C2.05589 4.74717 1.8952 4.99803 1.83102 5.27853L0.530978 10.9627Z" stroke="white" stroke-linecap="round" stroke-linejoin="round"/>
</svg>
