<svg width="17" height="15" viewBox="0 0 17 15" fill="none" xmlns="http://www.w3.org/2000/svg">
<path d="M5.0499 7.13158V3.44737C5.0499 2.66568 5.36949 1.916 5.93837 1.36326C6.50725 0.810525 7.27882 0.5 8.08333 0.5C8.88785 0.5 9.65942 0.810525 10.2283 1.36326C10.7972 1.916 11.1168 2.66568 11.1168 3.44737V7.13158M0.536141 12.7065C0.486858 12.9219 0.487991 13.1453 0.539458 13.3603C0.590925 13.5752 0.691411 13.7762 0.833499 13.9483C0.975588 14.1204 1.15565 14.2594 1.3604 14.3549C1.56514 14.4504 1.78935 14.5 2.01646 14.5H14.1502C14.3773 14.5 14.6015 14.4504 14.8063 14.3549C15.011 14.2594 15.1911 14.1204 15.3332 13.9483C15.4753 13.7762 15.5757 13.5752 15.6272 13.3603C15.6787 13.1453 15.6798 12.9219 15.6305 12.7065L14.1138 6.07495C14.0389 5.7477 13.8515 5.45503 13.5823 5.24525C13.3132 5.03547 12.9785 4.92111 12.6335 4.92105H3.53318C3.18815 4.92111 2.85345 5.03547 2.58433 5.24525C2.3152 5.45503 2.12773 5.7477 2.05286 6.07495L0.536141 12.7065Z" stroke="black" stroke-linecap="round" stroke-linejoin="round"/>
</svg>
